<?xml version="1.0" encoding="UTF-8"?>
<svg width="1200pt" height="1200pt" version="1.1" viewBox="0 0 1200 1200" xmlns="http://www.w3.org/2000/svg">
 <path d="m570 451.2c7.1992-2.3984 15.602-14.398 16.801-21.602 1.1992-16.801-1.1992-34.801-3.6016-51.602-19.199-96-66-180-118.8-262.8-45.602 22.801-85.199 50.398-108 97.199-21.602 45.602-32.398 94.801-37.199 144 0 6 1.1992 13.199 4.8008 18 51.602 74.406 159.6 109.21 246 76.805z" fill="#fff"/>
 <path d="m160.8 717.6c-26.398 21.602-32.398 50.398-16.801 80.398 31.199 58.801 72 111.6 121.2 156 18 16.801 38.398 31.199 58.801 46.801 2.3984-15.602 3.6016-28.801 4.8008-40.801 14.398-85.199 52.801-158.4 121.2-211.2 9.6016-7.1992 13.199-14.398 14.398-26.398 1.1992-40.801 8.3984-80.398 26.398-117.6 12-22.801 27.602-42 52.801-50.398 26.398-8.3984 49.199 4.8008 55.199 31.199 1.1992 7.1992 2.3984 14.398 3.6016 20.398 7.1992 46.801 31.199 66 81.602 66 3.6016-36 8.3984-72 10.801-108 2.3984-32.398 14.398-45.602 45.602-52.801 18-3.6016 34.801-7.1992 52.801-12 117.6-12 255.6-90 268.8-199.2 3.6016-31.199-8.3984-50.398-38.398-58.801-43.199-10.801-86.398-20.398-128.4-32.398-7.1992-2.3984-102-9.6016-108-15.602-12-10.801-20.398-27.602-34.801-33.602-39.602-18-81.602-36-123.6-48s-85.199-19.199-129.6-7.1992c18 32.398 37.199 62.398 52.801 94.801 37.199 72 68.398 146.4 67.199 230.4 0 27.602-12 44.398-38.398 52.801-50.398 15.602-100.8 16.801-151.2 2.3984-44.398-12-81.602-37.199-114-69.602-1.1992 0-3.6016 1.1992-4.8008 1.1992v39.602c2.3984 54-15.602 100.8-44.398 144-28.805 48.004-64.805 84.004-105.61 117.61zm550.8-490.8c14.398 0 27.602 12 27.602 27.602 0 14.398-12 27.602-27.602 27.602-14.398 0-27.602-12-27.602-27.602 1.1992-14.402 13.199-27.602 27.602-27.602z" fill="#fff"/>
 <path d="m652.8 1050c42-15.602 109.2-12 152.4-24 24-7.1992 172.8-16.801 186-39.602 3.6016-6 1.1992-28.801 4.8008-34.801 22.801-34.801 22.801-34.801-4.8008-66-21.602-24-190.8-49.199-198-82.801-4.8008-27.602-20.398-46.801-42-61.199-31.199-21.602-67.199-31.199-104.4-34.801-15.602-1.1992-27.602-8.3984-37.199-21.602-18-22.801-27.602-49.199-31.199-76.801-2.3984-21.602-13.199-26.398-30-13.199-14.398 13.199-30 30-34.801 48-9.6016 33.602-12 69.602-18 103.2-1.1992 8.3984-6 20.398-13.199 25.199-81.602 58.805-118.8 140.41-126 236.41 0 4.8008 3.6016 13.199 7.1992 14.398 44.398 19.199 88.801 40.801 134.4 56.398 31.199 10.801 64.801 14.398 97.199 20.398h42c0-8.3984-2.3984-18 0-26.398 3.6055-8.3984 8.4062-20.398 15.605-22.797zm46.801-216c13.199 0 25.199 10.801 25.199 25.199 0 13.199-10.801 25.199-25.199 25.199-14.398 0-25.199-10.801-25.199-25.199-0.003906-14.398 11.996-25.199 25.199-25.199z" fill="#fff"/>
</svg>
